<?xml version="1.0" standalone="no"?><!DOCTYPE svg PUBLIC "-//W3C//DTD SVG 1.1//EN" "http://www.w3.org/Graphics/SVG/1.1/DTD/svg11.dtd"><svg t="1552381581344" class="icon" style="" viewBox="0 0 1024 1024" version="1.1" xmlns="http://www.w3.org/2000/svg" p-id="1430" xmlns:xlink="http://www.w3.org/1999/xlink" width="200" height="200"><defs><style type="text/css"></style></defs><path d="M 674.461 436.976 c -26.8929 0 -48.6831 -21.7902 -48.6831 -48.6831 c 0 -63.8534 -51.855 -115.709 -115.709 -115.709 c -63.8534 0 -115.709 51.855 -115.709 115.709 c 0 17.377 -9.24014 33.5127 -24.4105 42.2012 c -15.0324 8.68849 -33.6507 8.68849 -48.6831 0 c -15.0324 -8.68849 -24.4105 -24.8242 -24.4105 -42.2012 c 0 -117.639 95.4354 -213.075 213.075 -213.075 S 723.006 270.653 723.006 388.292 c 0.275825 26.8929 -21.6523 48.6831 -48.5452 48.6831 Z m 0 0" p-id="1431" fill="#ffffff"></path><path d="M 823.682 436.976 c -26.8929 0 -48.6831 -21.7902 -48.6831 -48.6831 c 0 -146.325 -118.605 -264.791 -264.791 -264.791 c -146.325 0 -264.791 118.605 -264.791 264.791 c 0 26.8929 -21.7902 48.6831 -48.6831 48.6831 s -48.6831 -21.7902 -48.6831 -48.6831 c 0 -129.362 69.0942 -248.932 181.079 -313.75 c 112.123 -64.681 250.173 -64.681 362.297 0 c 112.123 64.681 181.079 184.251 181.079 313.75 c -0.137913 26.8929 -21.9281 48.6831 -48.821 48.6831 Z m 0 0" p-id="1432" fill="#ffffff"></path><path d="M 937.874 604.401 H 560.407 V 436.976 c 0 -26.8929 -21.7902 -48.6831 -48.6831 -48.6831 s -48.6831 21.7902 -48.6831 48.6831 V 604.401 H 85.437 c -33.6507 0 -60.8194 27.3067 -60.8194 60.8194 v 272.378 c 0 33.6507 27.3067 60.8194 60.8194 60.8194 h 852.299 c 33.6507 0 60.8194 -27.3067 60.8194 -60.8194 V 665.359 c 0.137913 -33.6507 -27.1687 -60.9573 -60.6815 -60.9573 Z M 174.804 850.161 c -26.8929 0 -48.6831 -21.7902 -48.6831 -48.6831 c 0 -26.8929 21.7902 -48.6831 48.6831 -48.6831 c 26.8929 0 48.6831 21.7902 48.6831 48.6831 c 0 12.9637 -5.10276 25.3759 -14.205 34.4781 c -9.24014 9.10222 -21.6523 14.205 -34.4781 14.205 Z m 147.566 0 c -26.8929 0 -48.6831 -21.7902 -48.6831 -48.6831 c 0 -26.8929 21.7902 -48.6831 48.6831 -48.6831 c 26.8929 0 48.6831 21.7902 48.6831 48.6831 c 0 12.9637 -5.10276 25.3759 -14.205 34.4781 c -9.10222 9.10222 -21.5143 14.205 -34.4781 14.205 Z m 0 0" p-id="1433" fill="#ffffff"></path></svg>