<?xml version="1.0" standalone="no"?><!DOCTYPE svg PUBLIC "-//W3C//DTD SVG 1.1//EN" "http://www.w3.org/Graphics/SVG/1.1/DTD/svg11.dtd"><svg t="1552381838563" class="icon" style="" viewBox="0 0 1024 1024" version="1.1" xmlns="http://www.w3.org/2000/svg" p-id="1739" xmlns:xlink="http://www.w3.org/1999/xlink" width="200" height="200"><defs><style type="text/css"></style></defs><path d="M 72.404 649.222 h 412.082 c 30.3407 0 54.8892 24.5484 54.8892 54.8892 c 0 30.3407 -24.5484 54.8892 -54.8892 54.8892 H 72.404 c -30.3407 0 -54.8892 -24.5484 -54.8892 -54.8892 c 0 -30.3407 24.5484 -54.8892 54.8892 -54.8892 Z m 0 0" p-id="1740" fill="#ffffff"></path><path d="M 814.235 896.5 c -106.055 0 -192.25 -86.3332 -192.25 -192.25 S 708.318 512 814.235 512 s 192.25 86.3332 192.25 192.25 s -86.1953 192.25 -192.25 192.25 Z m 0 -274.722 c -45.5111 0 -82.4717 36.9605 -82.4717 82.4717 s 36.9605 82.4717 82.4717 82.4717 s 82.4717 -36.9605 82.4717 -82.4717 c -0.137913 -45.5111 -37.0985 -82.4717 -82.4717 -82.4717 Z m 0 0" p-id="1741" fill="#ffffff"></path><path d="M 512.069 264.585 h 412.082 c 30.3407 0 54.8892 24.5484 54.8892 54.8892 c 0 30.3407 -24.5484 54.8892 -54.8892 54.8892 H 512.069 c -30.3407 0 -54.8892 -24.5484 -54.8892 -54.8892 c -0.137913 -30.3407 24.5484 -54.8892 54.8892 -54.8892 Z m 0 0" p-id="1742" fill="#ffffff"></path><path d="M 209.765 511.862 C 103.849 511.862 17.515 425.529 17.515 319.474 C 17.515 213.557 103.849 127.225 209.765 127.225 c 106.055 0 192.25 86.3332 192.25 192.25 c 0.137913 106.055 -86.1953 192.388 -192.25 192.388 Z m 0 -274.722 c -45.5111 0 -82.4717 36.9605 -82.4717 82.4717 s 36.9605 82.4717 82.4717 82.4717 s 82.4717 -36.9605 82.4717 -82.4717 s -36.9605 -82.4717 -82.4717 -82.4717 Z m 0 0" p-id="1743" fill="#ffffff"></path></svg>