<?xml version="1.0" standalone="no"?><!DOCTYPE svg PUBLIC "-//W3C//DTD SVG 1.1//EN" "http://www.w3.org/Graphics/SVG/1.1/DTD/svg11.dtd"><svg t="1552380998715" class="icon" style="" viewBox="0 0 1024 1024" version="1.1" xmlns="http://www.w3.org/2000/svg" p-id="977" xmlns:xlink="http://www.w3.org/1999/xlink" width="200" height="200"><defs><style type="text/css"></style></defs><path d="M967.014 717.414h-64.819V548.966h-345.6V438.272H842.19a19.251 19.251 0 0 0 19.2-19.251V101.58a19.302 19.302 0 0 0-19.2-19.661H189.44a19.302 19.302 0 0 0-19.2 19.251v317.44a19.302 19.302 0 0 0 19.2 19.661h285.594v110.694h-345.6v168.448h-64.82a9.626 9.626 0 0 0-9.574 9.626v211.712a9.626 9.626 0 0 0 9.574 9.626h211.2a9.626 9.626 0 0 0 9.626-9.626V727.04a9.626 9.626 0 0 0-9.626-9.626h-64.819v-86.63h264.039v86.63h-64.82a9.626 9.626 0 0 0-9.574 9.626v211.712a9.626 9.626 0 0 0 9.574 9.626h211.2a9.626 9.626 0 0 0 9.575-9.626V727.04a9.626 9.626 0 0 0-9.575-9.626h-64.819v-86.63h263.987v86.63h-64.768a9.626 9.626 0 0 0-9.625 9.626v211.712a9.626 9.626 0 0 0 9.625 9.626h211.2a9.626 9.626 0 0 0 9.575-9.626V727.04a9.626 9.626 0 0 0-9.575-9.626zM208.64 868.147a3.277 3.277 0 0 1-3.277 3.277h-70.4a3.277 3.277 0 0 1-3.277-3.277v-70.605a3.277 3.277 0 0 1 3.277-3.276h70.4a3.277 3.277 0 0 1 3.277 3.276z m345.549 0a3.277 3.277 0 0 1-3.226 3.277h-70.451a3.277 3.277 0 0 1-3.226-3.277v-70.605a3.226 3.226 0 0 1 3.226-3.276h70.451a3.226 3.226 0 0 1 3.226 3.276z m-307.2-506.88V159.13h537.6v202.137z m652.749 506.88a3.277 3.277 0 0 1-3.226 3.277h-70.4a3.277 3.277 0 0 1-3.226-3.277v-70.605a3.226 3.226 0 0 1 3.226-3.276h70.451a3.226 3.226 0 0 1 3.226 3.276zM381.44 212.07a48.128 48.128 0 1 0 47.974 48.128 48.077 48.077 0 0 0-47.974-48.128z" p-id="978" fill="#ffffff"></path></svg>