<?xml version="1.0" standalone="no"?><!DOCTYPE svg PUBLIC "-//W3C//DTD SVG 1.1//EN" "http://www.w3.org/Graphics/SVG/1.1/DTD/svg11.dtd"><svg t="1552381100855" class="icon" style="" viewBox="0 0 1059 1024" version="1.1" xmlns="http://www.w3.org/2000/svg" p-id="1128" xmlns:xlink="http://www.w3.org/1999/xlink" width="206.8359375" height="200"><defs><style type="text/css"></style></defs><path d="M 580.375 115.25 V 0 h -115.25 v 115.25 H 10.7477 v 115.25 h 57.625 v 576 h 358.375 L 202.749 979.25 l 38.375 44.7499 L 516.373 800 l 275.25 224 l 38.375 -44.7499 L 612.374 800 h 364.75 V 224 h 57.625 v -108.75 H 580.375 Z M 919.498 742.375 H 125.998 V 230.375 H 919.498 v 512 Z m -627.125 -115.125 V 454.375 h 172.75 c 0 -83.25 -70.375 -147.25 -153.625 -147.25 C 228.248 307.125 157.873 377.5 157.873 460.75 c 6.5 83.25 51.2499 166.499 134.5 166.499 Z m 57.625 57.5001 c 89.625 0 172.75 -89.625 172.75 -172.75 H 349.998 v 172.75 Z m 454.375 -345.5 H 637.998 v 57.625 H 810.749 v -57.625 h -6.37499 Z m 0 115.125 H 637.998 v 57.625 H 810.749 v -57.625 h -6.37499 Z m 0 115.25 H 637.998 v 57.625 H 810.749 v -57.625 h -6.37499 Z m 0 0" p-id="1129" fill="#ffffff"></path></svg>