<?xml version="1.0" standalone="no"?><!DOCTYPE svg PUBLIC "-//W3C//DTD SVG 1.1//EN" "http://www.w3.org/Graphics/SVG/1.1/DTD/svg11.dtd"><svg t="1552381713229" class="icon" style="" viewBox="0 0 1064 1024" version="1.1" xmlns="http://www.w3.org/2000/svg" p-id="1583" xmlns:xlink="http://www.w3.org/1999/xlink" width="207.8125" height="200"><defs><style type="text/css"></style></defs><path d="M216.78856 1022.752285h-111.545754c-55.398562 0-100.316315-44.917753-100.441087-100.316316V101.064945c0-55.398562 44.917753-100.316315 100.316315-100.316316h111.545754c55.398562 0 100.316315 44.917753 100.316315 100.316316v821.371024c0.124772 55.398562-44.792982 100.316315-100.191543 100.316316zM105.242806 60.139881c-22.583648 0-40.925064 18.341416-40.925064 40.925064v821.371024c0 22.583648 18.341416 40.800292 40.925064 40.925064h111.545754c22.583648 0 40.800292-18.341416 40.925064-40.925064V101.064945c0-22.583648-18.341416-40.800292-40.925064-40.925064h-111.545754z m0 0" p-id="1584" fill="#ffffff"></path><path d="M105.242806 130.76057h122.65042v70.62069h-122.65042V130.76057z m0 104.059462h122.65042v70.620689h-122.65042v-70.620689z m0 104.059461h122.65042v70.62069h-122.65042v-70.62069z m468.392348 683.872792h-111.545754c-55.398562 0-100.316315-44.917753-100.316315-100.316316V101.064945c0.124772-55.398562 44.917753-100.316315 100.316315-100.316316h111.545754c55.398562 0.124772 100.316315 44.917753 100.316315 100.316316v821.371024c0 55.398562-44.917753 100.316315-100.316315 100.316316zM462.0894 60.139881c-22.583648 0-40.800292 18.341416-40.925064 40.925064v821.371024c0 22.583648 18.341416 40.800292 40.925064 40.925064h111.545754c22.583648 0 40.800292-18.341416 40.925064-40.925064V101.064945c0-22.583648-18.341416-40.800292-40.925064-40.925064h-111.545754z m0 0" p-id="1585" fill="#ffffff"></path><path d="M462.0894 130.76057h122.650421v70.62069h-122.650421V130.76057z m0 104.059462h122.650421v70.620689h-122.650421v-70.620689z m0 104.059461h122.650421v70.62069h-122.650421v-70.62069z m0 0" p-id="1586" fill="#ffffff"></path><path d="M573.635154 1022.752285h-111.545754c-55.398562 0-100.316315-44.917753-100.316315-100.316316V101.064945c0.124772-55.398562 44.917753-100.316315 100.316315-100.316316h111.545754c55.398562 0.124772 100.316315 44.917753 100.316315 100.316316v821.371024c0 55.398562-44.917753 100.316315-100.316315 100.316316zM462.0894 60.139881c-22.583648 0-40.800292 18.341416-40.925064 40.925064v821.371024c0 22.583648 18.341416 40.800292 40.925064 40.925064h111.545754c22.583648 0 40.800292-18.341416 40.925064-40.925064V101.064945c0-22.583648-18.341416-40.800292-40.925064-40.925064h-111.545754z m0 0" p-id="1587" fill="#ffffff"></path><path d="M462.0894 130.76057h122.650421v70.62069h-122.650421V130.76057z m0 104.059462h122.650421v70.620689h-122.650421v-70.620689z m0 104.059461h122.650421v70.62069h-122.650421v-70.62069z m468.392348 683.872792h-111.420982c-55.398562 0-100.316315-44.917753-100.316315-100.316316V101.064945c0.124772-55.398562 44.917753-100.316315 100.316315-100.316316h111.545754c55.398562 0.124772 100.191544 45.042525 100.316315 100.316316v821.371024c-0.249543 55.398562-45.042525 100.316315-100.441087 100.316316zM819.060766 60.139881c-22.583648 0-40.800292 18.341416-40.925064 40.925064v821.371024c0 22.583648 18.341416 40.800292 40.925064 40.925064h111.545754c22.583648 0 40.800292-18.341416 40.925064-40.925064V101.064945c0-22.583648-18.341416-40.800292-40.925064-40.925064h-111.545754z m0 0" p-id="1588" fill="#ffffff"></path><path d="M818.935995 130.76057h122.65042v70.62069h-122.65042V130.76057z m0 104.059462h122.65042v70.620689h-122.65042v-70.620689z m0 104.059461h122.65042v70.62069h-122.65042v-70.62069z m0 0" p-id="1589" fill="#ffffff"></path></svg>