<?xml version="1.0" standalone="no"?><!DOCTYPE svg PUBLIC "-//W3C//DTD SVG 1.1//EN" "http://www.w3.org/Graphics/SVG/1.1/DTD/svg11.dtd"><svg t="1552382616454" class="icon" style="" viewBox="0 0 1059 1024" version="1.1" xmlns="http://www.w3.org/2000/svg" p-id="2502" xmlns:xlink="http://www.w3.org/1999/xlink" width="206.8359375" height="200"><defs><style type="text/css"></style></defs><path d="M516.475297 305.486873C402.808671 305.486873 310.649922 397.645622 310.649922 511.312248c0 113.666626 92.15875 205.825376 205.825375 205.825376 113.666626 0 205.825376-92.15875 205.825376-205.825376 0-113.791672-92.15875-205.825376-205.825376-205.825375z m0 346.251801c-77.778483 0-140.926609-63.02308-140.926609-140.926609 0-77.778483 63.02308-140.926609 140.926609-140.926609 77.778483 0 140.926609 63.02308 140.926609 140.926609 0.125046 37.388692-14.755404 73.276835-41.140066 99.786543-26.384662 26.509708-62.272805 41.390158-99.661497 41.390157v-0.250091z m0 0" p-id="2503" fill="#ffffff"></path><path d="M963.388962 393.769203l-73.026743-11.00403c-4.876786-13.880083-10.503847-27.63512-16.881182-40.889975l44.141165-60.02198c12.254488-12.129442 19.006961-28.635487 19.00696-45.891806 0-17.256319-6.877519-33.762364-19.00696-45.891806l-77.2783-77.90353c-12.129442-12.129442-28.635487-19.006961-45.891806-19.00696-17.256319 0-33.762364 6.877519-45.891807 19.00696l-59.021614 43.766028c-13.254854-6.502381-27.009891-12.254488-40.889974-17.256319L637.269534 65.023812c0-17.256319-6.877519-33.762364-19.006961-45.891806-12.254488-12.254488-28.760532-19.132006-46.016852-19.132006h-109.415069c-35.888143 0-64.898767 29.010624-64.898767 64.898767L386.927856 137.675418c-13.880083 4.876786-27.63512 10.503847-40.889975 16.881182L285.640763 110.415435A64.523629 64.523629 0 0 0 239.748957 91.283429c-17.256319 0-33.762364 6.877519-45.891806 19.006961l-77.528392 77.528391c-12.129442 12.129442-19.006961 28.760532-19.00696 45.891806 0 17.256319 6.877519 33.762364 19.00696 45.891806l44.141165 60.021981c-6.25229 13.004762-11.754305 26.259617-16.506044 39.889608l-74.652339 9.753572c-17.256319 0-33.762364 6.877519-45.891806 19.006961-12.129442 12.129442-19.006961 28.635487-19.006961 45.891806v109.66516c0 17.256319 6.877519 33.762364 19.006961 45.891806 12.129442 12.129442 28.635487 19.006961 45.891806 19.006961l74.277201 11.379167c4.626694 14.005129 10.003663 27.760166 16.255953 41.265112l-45.141531 61.022347c-12.254488 12.129442-19.006961 28.635487-19.006961 45.891806 0 17.256319 6.877519 33.762364 19.006961 45.891806l77.528392 77.528392c12.129442 12.129442 28.760532 19.006961 45.891806 19.00696 17.256319 0 33.762364-6.877519 45.891806-19.00696l60.64721-44.766394c12.754671 6.25229 25.884479 11.754305 39.264379 16.506045l11.379167 75.652704c0 35.888143 29.010624 64.898767 64.898766 64.898767h109.665161c35.888143 0 64.898767-29.010624 64.898767-64.898767l11.379167-74.277201c13.504946-4.626694 26.7598-10.128709 39.639516-16.255953l61.397485 45.141531c12.129442 12.254488 28.760532 19.006961 45.891806 19.006961 17.256319 0 33.762364-6.877519 45.891806-19.006961l77.528392-77.528391c12.254488-12.129442 19.006961-28.760532 19.00696-45.891806 0-17.256319-6.877519-33.762364-19.00696-45.891806l-44.141165-60.021981c6.377335-13.004762 12.004396-26.259617 16.881182-39.889608l74.652338-11.379167c35.888143 0 64.898767-29.010624 64.898767-64.898767v-109.665161c0-17.381365-6.877519-33.88741-19.257052-46.141897-12.129442-12.129442-28.760532-18.881915-46.141898-18.631823z m0 174.563927h-9.753572l-74.652338 11.379167-38.264013 5.877152-13.004763 36.388326c-4.126511 11.00403-8.753206 21.883014-14.005128 32.511906l-17.25632 35.38796 23.383564 32.511906 44.141164 60.021981 2.876054 3.876419 3.626328 3.626328-77.528392 78.278667-3.626328-3.626328-3.87642-2.876053-61.397484-45.141532-32.511906-23.008426-33.762364 18.13164c-10.628892 5.126878-21.382831 9.628526-32.511907 13.629992L588.251583 838.306997l-6.502382 38.264013-11.379167 74.277201v9.753572h-110.415435v-11.00403l-11.379167-75.652705-5.877153-38.264012-36.638417-13.004763c-11.00403-4.001465-21.883014-8.503114-32.511906-13.629991L338.159996 792.1651l-32.511906 23.008425-60.64721 44.766394-3.876419 2.876054-3.626328 3.626328-77.528392-77.528392 3.626328-3.626328 2.625962-3.87642 45.391623-61.397484 23.008426-32.511906-16.881182-35.012822c-5.126878-10.628892-9.628526-21.382831-13.629992-32.511907L191.856418 584.213946 153.217268 577.711564l-74.277201-11.379167h-9.753572v-112.041031h9.753572l74.652339-11.379167 38.63915-5.877152 13.004762-36.638417c4.126511-11.00403 8.753206-21.883014 14.005129-32.511907l16.881182-35.012822-23.008426-32.511906-44.516302-59.396752-2.000733-3.876419-4.251557-3.626328 77.2783-77.528392 3.626328 3.626328 3.87642 2.625962 60.397118 44.766394 32.511906 23.008426 35.012822-16.881182c11.129076-5.376969 22.508243-10.128709 34.137502-14.255221l37.013555-13.004762 5.877152-38.63915 10.003663-72.651606v-9.753572h110.415436v9.753572l11.379167 73.651972 4.876786 38.264013 36.638417 13.004762c11.754305 4.126511 23.258518 8.878251 34.387593 14.25522l35.38796 17.25632 32.511906-23.383563 59.396752-43.515936 4.251557-2.000733 3.626328-3.626328 77.528391 77.528392-3.626328 3.626328-2.876053 3.876419-44.516302 59.396752-23.008426 32.511906 17.506411 33.762364c5.251923 11.129076 10.003663 22.508243 14.005129 34.137502l12.629625 37.013555 38.889242 5.877152 73.026743 11.00403h9.753572l-0.875321 111.16571z m0 0" p-id="2504" fill="#ffffff"></path></svg>