<?xml version="1.0" standalone="no"?><!DOCTYPE svg PUBLIC "-//W3C//DTD SVG 1.1//EN" "http://www.w3.org/Graphics/SVG/1.1/DTD/svg11.dtd"><svg t="1552382030732" class="icon" style="" viewBox="0 0 1024 1024" version="1.1" xmlns="http://www.w3.org/2000/svg" p-id="1893" xmlns:xlink="http://www.w3.org/1999/xlink" width="200" height="200"><defs><style type="text/css"></style></defs><path d="M 951.114 731.005 H 72.886 c -25.5138 0 -46.3386 -20.8247 -46.3386 -46.3386 V 170.529 c 0 -25.5138 20.8247 -46.3386 46.3386 -46.3386 h 878.226 c 25.5138 0 46.3386 20.8247 46.3386 46.3386 v 514.138 c 0 25.5138 -20.8247 46.3386 -46.3386 46.3386 Z m -869.401 -55.165 h 860.574 v -496.485 h -860.574 v 496.485 Z m 0 0" p-id="1894" fill="#ffffff"></path><path d="M 539.583 842.438 c 0 10.3434 -9.10222 18.7561 -20.4111 18.7561 h -14.3429 c -11.3088 0 -20.4111 -8.41266 -20.4111 -18.7561 v -137.913 c 0 -10.3434 9.10222 -18.7561 20.4111 -18.7561 h 14.3429 c 11.3088 0 20.4111 8.41266 20.4111 18.7561 v 137.913 Z m 0 0" p-id="1895" fill="#ffffff"></path><path d="M 815.407 882.157 c 0 10.3434 -8.55057 18.7561 -19.0319 18.7561 H 227.625 c -10.4813 0 -19.0319 -8.41266 -19.0319 -18.7561 v -17.6528 c 0 -10.3434 8.55057 -18.7561 19.0319 -18.7561 h 568.751 c 10.4813 0 19.0319 8.41266 19.0319 18.7561 v 17.6528 Z M 157.702 256.586 h 692.873 v 330.99 H 157.702 v -330.99 Z m 0 0" p-id="1896" fill="#ffffff"></path></svg>